{"title":"Enders Game (2013) DD5.1 NL Subs BR2DVD-HQ-Menu-NLU002","uid":9545103,"size":4688187648,"categoryP":"video","categoryS":"movies_dvdr","magnet":"?xt=urn:btih:d4985caab678522230ae19033eafedc2c01ed83b&amp;dn=Enders+Game+%282013%29+DD5.1+NL+Subs+BR2DVD-HQ-Menu-NLU002&amp;tr=udp%3A%2F%2Ftracker.openbittorrent.com%3A80&amp;tr=udp%3A%2F%2Fopen.demonii.com%3A1337&amp;tr=udp%3A%2F%2Ftracker.coppersurfer.tk%3A6969&amp;tr=udp%3A%2F%2Fexodus.desync.com%3A6969","seeders":4,"leechers":0,"uploader":"NLUPPER002","files":-1,"time":1391117944,"description":"Enders Game (2013) DD5.1 NL Subs BR2DVD-HQ-Menu-NLU002\n.\nPG-13  -   114 min  -  Action | Adventure | Sci-Fi  -  1 November 2013 (USA) \nRated PG-13 for some violence, sci-fi action and thematic material.\n. &lt;a href=&quot;\nhttp://www.imdb.com/title/tt1731141/&quot; rel=&quot;nofollow&quot; target=&quot;_NEW&quot;&gt;\nhttp://www.imdb.com/title/tt1731141/&lt;/a&gt;\n. &lt;a href=&quot;\nhttp://www.moviemeter.nl/film/89999&quot; rel=&quot;nofollow&quot; target=&quot;_NEW&quot;&gt;\nhttp://www.moviemeter.nl/film/89999&lt;/a&gt;\n.\nPLOT\n.\nYoung Ender Wiggin is recruited by the International Military to lead the fight against the Formics,\na genocidal alien race which nearly annihilated the human race in a previous invasion. \n.\nSource: 1080p\nFormat: DVD-5\nVideo: PAL\nAudio: English DD5.1\nAudio: Menu: English DD5.1\nSubtitles: Dutch, English. White Yellow and Yellow\nNL Vertaling: QoQ-TEAM\nMenu: Yes All pages FULL MOTION With nice motion pictures and audio from the movie.\nCharpter selection: Yes added 15 charpters\nProgram Used: TMPGEnc Authoring Works 5 retail\nDVDSubedit to give the second yellow sub a nice collor.\n.\nNLU002 saying, max size, max bitrate = max quality so Enjoy another High Quality upload from NLU002\n.\nScreens \n.\n[IMG]http://imagizer.imageshack.us/v2/800x600q90/15/dpfu.jpg[/IMG]\n\n[IMG]http://imagizer.imageshack.us/v2/800x600q90/43/g383.jpg[/IMG]\n\n[IMG]http://imagizer.imageshack.us/v2/800x600q90/833/9zbx.jpg[/IMG]\n\n[IMG]http://imagizer.imageshack.us/v2/800x600q90/829/i69v.jpg[/IMG]\n\n[IMG]http://imagizer.imageshack.us/v2/800x600q90/545/0879.jpg[/IMG]\n\n[IMG]http://imagizer.imageshack.us/v2/800x600q90/560/uwqo.jpg[/IMG]\n\n[IMG]http://imagizer.imageshack.us/v2/800x600q90/855/wm2m.jpg[/IMG]\n\n[IMG]http://imagizer.imageshack.us/v2/800x600q90/842/jfjc.jpg[/IMG]\n\n[IMG]http://imagizer.imageshack.us/v2/800x600q90/841/7lw7.jpg[/IMG]\n.\nInfo 1ste vob\n\nOverall bit rate                         : 4 924 Kbps\nWriting library                          : encoded by TMPGEnc Authoring Works 5 Version. 5.1.3.57\n\nVideo\nID                                       : 224 (0xE0)\nFormat                                   : MPEG Video\nFormat version                           : Version 2\nFormat profile                           : Main@Main\nFormat settings, BVOP                    : Yes\nFormat settings, Matrix                  : Custom\nFormat settings, GOP                     : Variable\nDuration                                 : 29mn 4s\nBit rate mode                            : Variable\nBit rate                                 : 4 378 Kbps\nMaximum bit rate                         : 6 520 Kbps\nWidth                                    : 720 pixels\nHeight                                   : 576 pixels\nDisplay aspect ratio                     : 16:9\nFrame rate                               : 25.000 fps\nStandard                                 : PAL\nColor space                              : YUV\nChroma subsampling                       : 4:2:0\nBit depth                                : 8 bits\nScan type                                : Progressive\nCompression mode                         : Lossy\nBits/(Pixel*Frame)                       : 0.422\nTime code of first frame                 : 00:00:00:00\nTime code source                         : Group of pictures header\nStream size                              : 910 MiB (89%)\nSource encoded stream size               : encoded by TMPGEnc Authoring Works 5 Version. 5.1.3.57\nWriting library                          : TMPGEnc Authoring Works 5 Version. 5.1.3.57\nColor primaries                          : BT.601 PAL\nTransfer characteristics                 : BT.470 System B, BT.470 System G\nMatrix coefficients                      : BT.601\n\nAudio\nID                                       : 189 (0xBD)-128 (0x80)\nFormat                                   : AC-3\nFormat/Info                              : Audio Coding 3\nMode extension                           : CM (complete main)\nFormat settings, Endianness              : Big\nMuxing mode                              : DVD-Video\nDuration                                 : 29mn 4s\nBit rate mode                            : Constant\nBit rate                                 : 448 Kbps\nChannel(s)                               : 6 channels\nChannel positions                        : Front: L C R, Side: L R, LFE\nSampling rate                            : 48.0 KHz\nBit depth                                : 16 bits\nCompression mode                         : Lossy\nStream size                              : 93.1 MiB (9%)\n\n\n\n","torrent":{"xt":"urn:btih:d4985caab678522230ae19033eafedc2c01ed83b","amp;dn":"Enders+Game+%282013%29+DD5.1+NL+Subs+BR2DVD-HQ-Menu-NLU002","amp;tr":["udp%3A%2F%2Ftracker.openbittorrent.com%3A80","udp%3A%2F%2Fopen.demonii.com%3A1337","udp%3A%2F%2Ftracker.coppersurfer.tk%3A6969","udp%3A%2F%2Fexodus.desync.com%3A6969"],"infoHash":"d4985caab678522230ae19033eafedc2c01ed83b","infoHashBuffer":{"type":"Buffer","data":[212,152,92,170,182,120,82,34,48,174,25,3,62,175,237,194,192,30,216,59]},"announce":[],"urlList":[]}}